<?xml version="1.0" standalone="no"?>
<!DOCTYPE svg PUBLIC "-//W3C//DTD SVG 20010904//EN"
 "http://www.w3.org/TR/2001/REC-SVG-20010904/DTD/svg10.dtd">
<svg version="1.0" xmlns="http://www.w3.org/2000/svg"
 width="527.000000pt" height="349.000000pt" viewBox="0 0 527.000000 349.000000"
 preserveAspectRatio="xMidYMid meet">

<g transform="translate(0.000000,349.000000) scale(0.100000,-0.100000)"
fill="#000000" stroke="none">
<path d="M2150 2745 c0 -27 4 -35 18 -35 11 0 27 -9 38 -21 18 -20 19 -51 19
-976 l0 -955 -24 -19 c-13 -11 -30 -18 -38 -15 -9 4 -13 -5 -13 -34 l0 -40
180 0 180 0 0 34 c0 30 -4 35 -29 41 -17 3 -33 16 -40 31 -8 17 -11 148 -11
429 l0 405 68 0 c122 -1 178 -24 217 -91 19 -31 20 -58 26 -359 4 -216 10
-338 18 -363 18 -57 96 -132 151 -147 85 -23 170 7 170 60 0 27 -2 27 -43 23
-34 -4 -46 -1 -62 17 -19 21 -20 40 -25 374 -5 329 -6 354 -26 396 -21 45 -77
103 -120 122 -22 10 -21 12 36 49 66 43 118 107 152 189 20 51 22 73 26 303 3
227 2 254 -17 315 -45 148 -150 246 -308 287 -43 11 -117 15 -300 15 l-243 0
0 -35z m518 -63 c23 -13 58 -44 77 -70 62 -85 65 -104 65 -423 0 -270 -1 -292
-21 -346 -27 -73 -97 -146 -154 -162 -22 -6 -77 -11 -122 -11 l-83 0 0 513 c0
283 3 517 8 521 4 5 48 6 97 4 67 -3 101 -10 133 -26z"/>
<path d="M3250 2735 c0 -28 4 -35 19 -35 11 0 27 -10 35 -22 14 -20 16 -128
16 -968 0 -840 -2 -948 -16 -968 -8 -12 -24 -22 -35 -22 -15 0 -19 -7 -19 -35
l0 -35 253 0 c281 0 343 9 433 60 105 61 182 169 204 289 14 73 13 1350 0
1422 -23 122 -104 236 -210 293 -90 49 -142 56 -422 56 l-258 0 0 -35z m521
-61 c39 -12 67 -29 100 -63 82 -81 79 -49 79 -901 0 -813 1 -799 -57 -883 -45
-66 -113 -91 -250 -95 l-113 -4 0 981 0 981 93 0 c57 0 115 -6 148 -16z"/>
<path d="M850 1700 l0 -420 550 0 550 0 0 420 0 420 -550 0 -550 0 0 -420z
m548 233 c41 -23 102 -101 102 -130 0 -9 26 -13 93 -15 l92 -3 5 -130 c5 -121
7 -133 33 -170 15 -22 27 -43 27 -47 0 -5 -121 -8 -270 -8 -288 0 -288 0 -254
48 19 27 13 38 -25 45 -66 13 -151 127 -151 203 0 106 77 211 173 235 50 12
128 0 175 -28z"/>
<path d="M1185 1923 c-35 -18 -75 -53 -75 -65 0 -4 10 -8 23 -8 15 0 36 16 60
45 41 48 39 53 -8 28z"/>
<path d="M1244 1922 c-11 -10 -29 -30 -38 -45 l-18 -27 36 0 c41 0 49 11 44
58 -3 30 -4 30 -24 14z"/>
<path d="M1362 1895 c25 -35 38 -45 60 -45 34 0 35 10 6 37 -21 19 -80 53 -92
53 -3 0 9 -20 26 -45z"/>
<path d="M1290 1890 c0 -39 1 -40 35 -40 42 0 43 9 9 49 -34 41 -44 39 -44 -9z"/>
<path d="M1081 1799 c-16 -47 -14 -50 26 -47 35 3 38 6 44 41 6 36 5 37 -27
37 -27 0 -34 -5 -43 -31z"/>
<path d="M1177 1823 c-4 -3 -7 -21 -7 -40 0 -33 0 -33 50 -33 l50 0 0 40 0 40
-43 0 c-24 0 -47 -3 -50 -7z"/>
<path d="M1290 1810 c0 -17 7 -20 45 -20 38 0 45 3 45 20 0 17 -7 20 -45 20
-38 0 -45 -3 -45 -20z"/>
<path d="M1402 1813 c2 -13 14 -19 41 -21 33 -3 38 -1 35 15 -2 13 -14 19 -41
21 -33 3 -38 1 -35 -15z"/>
<path d="M1297 1763 c-4 -3 -7 -51 -7 -105 l0 -98 185 0 185 0 0 105 0 105
-178 0 c-98 0 -182 -3 -185 -7z m341 -40 l3 -23 -160 0 c-160 0 -179 4 -167
36 5 12 32 14 163 12 155 -3 158 -3 161 -25z m-108 -93 l0 -50 -105 0 -105 0
0 50 0 50 105 0 105 0 0 -50z m71 24 c14 -17 19 -64 7 -64 -4 0 -8 5 -8 10 0
6 -7 10 -15 10 -10 0 -15 10 -15 30 0 33 11 38 31 14z"/>
<path d="M1075 1698 c10 -46 12 -48 52 -48 28 0 34 3 29 16 -3 9 -6 27 -6 40
0 21 -4 24 -41 24 -41 0 -41 0 -34 -32z"/>
<path d="M1170 1713 c1 -51 11 -63 56 -63 l44 0 0 40 0 40 -50 0 c-41 0 -50
-3 -50 -17z"/>
<path d="M1126 1599 c29 -31 74 -59 93 -59 6 0 -4 20 -21 45 -27 39 -37 45
-67 45 l-35 0 30 -31z"/>
<path d="M1200 1621 c0 -13 50 -71 61 -71 5 0 9 18 9 40 0 39 -1 40 -35 40
-19 0 -35 -4 -35 -9z"/>
</g>
</svg>
