<?xml version="1.0" standalone="no"?>
<!DOCTYPE svg PUBLIC "-//W3C//DTD SVG 20010904//EN"
 "http://www.w3.org/TR/2001/REC-SVG-20010904/DTD/svg10.dtd">
<svg version="1.0" xmlns="http://www.w3.org/2000/svg"
 width="597.000000pt" height="401.000000pt" viewBox="0 0 597.000000 401.000000"
 preserveAspectRatio="xMidYMid meet">

<g transform="translate(0.000000,401.000000) scale(0.100000,-0.100000)"
fill="#000000" stroke="none">
<path d="M0 2005 l0 -2005 2985 0 2985 0 0 2005 0 2005 -2985 0 -2985 0 0
-2005z m3120 1460 c411 -47 1491 -235 1523 -264 4 -4 9 -24 10 -44 3 -30 0
-36 -12 -32 -103 31 -399 85 -946 171 -596 93 -714 104 -885 84 -47 -6 -107
-13 -135 -16 -258 -27 -1334 -210 -1406 -239 -13 -5 -15 1 -12 31 1 21 6 41
10 44 25 23 603 129 1169 215 463 70 487 72 684 50z m30 -190 c273 -34 1094
-169 1185 -194 17 -5 57 -14 90 -21 l60 -12 0 -1023 0 -1023 -120 -26 c-237
-50 -839 -150 -1180 -196 -189 -25 -265 -25 -462 0 -380 50 -1270 204 -1290
224 -4 3 -7 465 -7 1026 l-1 1019 50 11 c217 47 1036 183 1340 223 73 10 220
6 335 -8z m-1713 -2389 c288 -56 1043 -177 1328 -212 143 -18 283 -15 470 10
414 56 1214 191 1363 230 28 8 52 11 53 8 5 -41 3 -65 -6 -72 -38 -31 -1042
-205 -1538 -266 -119 -14 -155 -15 -260 -5 -361 37 -1543 239 -1582 271 -9 7
-11 29 -6 72 1 4 12 3 25 -2 14 -5 82 -20 153 -34z"/>
<path d="M2552 2948 c-9 -9 -12 -79 -12 -260 l0 -248 26 -10 c15 -6 184 -10
408 -10 313 0 386 3 395 14 8 9 11 88 9 267 l-3 254 -405 3 c-307 2 -409 -1
-418 -10z m788 -258 l0 -220 -380 0 -380 0 0 220 0 220 380 0 380 0 0 -220z"/>
<path d="M2400 2382 c0 -5 6 -16 13 -25 11 -17 52 -18 551 -18 558 0 555 0
556 39 0 9 -55 12 -240 12 -153 0 -240 -4 -240 -10 0 -6 -31 -10 -74 -10 -41
0 -78 5 -81 10 -7 12 -485 14 -485 2z"/>
<path d="M1964 2123 c6 -21 19 -125 20 -169 1 -26 5 -31 24 -31 19 0 22 5 23
41 l2 41 10 -37 c7 -25 16 -38 27 -38 9 0 17 6 17 13 0 13 21 157 25 179 2 8
-9 14 -27 16 -17 1 -25 -1 -19 -5 8 -5 9 -21 4 -48 -6 -34 -8 -36 -10 -12 -1
15 -4 32 -5 37 -1 6 -3 15 -4 20 0 6 -7 10 -14 10 -8 0 -18 -20 -24 -47 l-11
-48 1 45 c2 40 -1 45 -22 48 -18 3 -22 0 -17 -15z"/>
<path d="M2166 2124 c-10 -9 -16 -34 -17 -62 -2 -107 5 -128 48 -137 21 -4 51
20 40 31 -3 3 -2 16 3 29 5 13 6 26 2 29 -3 4 -5 26 -3 50 2 36 -2 47 -21 60
-28 20 -33 20 -52 0z m44 -78 c0 -58 -7 -86 -21 -86 -10 0 -12 123 -2 133 16
17 23 3 23 -47z"/>
<path d="M2275 2032 c0 -102 1 -108 20 -110 18 -1 21 4 18 36 l-2 37 11 -32
c7 -20 18 -33 28 -33 16 0 16 4 5 37 -9 25 -10 40 -3 44 5 4 12 23 15 42 4 29
0 41 -21 62 -14 14 -35 25 -48 25 -23 0 -23 -2 -23 -108z m55 33 c0 -19 -4
-35 -10 -35 -5 0 -10 16 -10 35 0 19 5 35 10 35 6 0 10 -16 10 -35z"/>
<path d="M2405 2035 c0 -93 2 -105 18 -105 12 0 17 9 18 33 l2 32 10 -38 c12
-41 33 -45 30 -6 -6 66 -6 88 1 137 7 43 6 52 -7 52 -10 0 -18 -16 -25 -47
l-10 -48 -1 48 c-1 38 -4 47 -18 47 -16 0 -18 -12 -18 -105z"/>
<path d="M2549 2035 c12 -83 18 -105 31 -105 12 0 17 11 19 42 3 58 8 59 16 4
5 -28 12 -46 20 -46 14 0 33 74 37 143 1 21 6 41 10 43 11 7 0 24 -16 24 -8 0
-17 -21 -23 -52 -9 -46 -11 -49 -13 -20 -1 17 -4 37 -5 42 -1 6 -3 15 -4 20 0
6 -8 10 -16 10 -10 0 -15 -10 -15 -32 0 -18 -5 -40 -10 -48 -7 -11 -10 -2 -10
33 0 38 -3 47 -18 47 -17 0 -17 -6 -3 -105z"/>
<path d="M2725 2035 c0 -94 2 -105 18 -105 16 0 17 9 13 103 -4 72 -9 103 -18
105 -10 2 -13 -22 -13 -103z"/>
<path d="M2801 2121 c-9 -16 -8 -18 10 -14 19 5 20 2 17 -86 -3 -80 -1 -91 14
-91 20 0 26 46 17 128 -4 45 -3 52 13 52 11 0 15 5 12 15 -9 23 -71 20 -83 -4z"/>
<path d="M2929 2083 c0 -32 -1 -79 -2 -106 -2 -37 1 -47 13 -47 12 0 15 8 12
35 -3 27 -1 35 12 35 12 0 16 -9 16 -35 0 -53 28 -47 32 8 6 84 -3 167 -18
167 -10 0 -14 -14 -14 -55 0 -44 -3 -55 -16 -55 -13 0 -15 10 -12 55 2 39 -1
55 -9 55 -9 0 -13 -19 -14 -57z"/>
<path d="M3059 2084 c0 -33 -1 -80 -2 -107 -2 -39 1 -47 16 -47 9 0 16 3 16 8
-1 4 0 18 1 32 2 23 3 23 12 -7 6 -18 17 -33 26 -33 9 0 12 6 7 18 -13 34 -18
75 -8 69 15 -9 16 88 1 101 -7 6 -25 13 -41 17 l-27 7 -1 -58z m51 -20 c0 -21
-5 -34 -13 -34 -9 0 -11 12 -9 40 5 48 22 43 22 -6z"/>
<path d="M3207 2088 c-10 -99 -16 -139 -22 -148 -4 -6 3 -10 14 -10 16 0 21 6
21 25 0 14 5 25 10 25 6 0 10 -11 10 -25 0 -16 6 -25 16 -25 14 0 15 8 11 53
-3 28 -8 63 -11 77 -3 14 -7 37 -8 53 -2 18 -8 27 -19 27 -13 0 -18 -12 -22
-52z"/>
<path d="M3326 2083 c8 -32 14 -79 14 -105 0 -36 4 -48 15 -48 11 0 15 11 15
40 0 22 0 41 0 43 1 1 5 20 11 42 20 81 20 85 5 85 -8 0 -18 -14 -22 -32 l-8
-33 -5 30 c-4 16 -13 31 -22 33 -15 3 -15 -2 -3 -55z"/>
<path d="M3440 2035 c0 -98 1 -105 20 -105 18 0 20 7 20 72 0 56 3 69 12 60
15 -15 31 -16 22 0 -4 7 -3 8 4 4 7 -4 12 -35 12 -76 0 -63 1 -68 20 -63 18 5
20 13 17 104 -1 59 2 101 8 103 6 3 -1 5 -15 5 -15 1 -30 -7 -38 -20 l-13 -21
-23 21 c-41 38 -46 29 -46 -84z"/>
<path d="M3622 2124 c-19 -13 -22 -24 -22 -77 0 -79 7 -105 31 -112 35 -11 57
3 61 40 6 56 -7 146 -23 156 -19 12 -21 11 -47 -7z m38 -95 c0 -52 -3 -70 -12
-67 -13 5 -24 99 -14 124 14 36 26 9 26 -57z"/>
<path d="M3730 2035 c0 -93 2 -105 18 -106 9 -1 29 -3 45 -5 l27 -3 0 110 c0
101 -1 109 -19 109 -15 0 -18 -5 -14 -22 l5 -23 -16 23 c-10 12 -24 22 -32 22
-11 0 -14 -20 -14 -105z m60 -41 c0 -36 -4 -64 -10 -64 -6 0 -10 30 -10 71 0
44 4 68 10 64 6 -3 10 -35 10 -71z"/>
<path d="M3858 2031 l-3 -110 39 3 c52 4 66 26 66 102 0 74 -24 114 -70 114
l-29 0 -3 -109z m62 9 c0 -53 -7 -80 -21 -80 -5 0 -9 34 -9 76 0 67 2 75 15
64 10 -8 15 -30 15 -60z"/>
<path d="M2370 1454 l0 -365 38 3 37 3 3 143 3 142 98 0 99 0 81 -145 c81
-143 82 -145 117 -145 22 0 37 6 40 15 4 9 -28 69 -76 146 -44 72 -80 132 -78
133 2 2 17 8 34 15 68 27 104 95 104 196 -1 110 -28 166 -100 203 -41 20 -57
22 -222 22 l-178 0 0 -366z m360 283 c43 -21 62 -72 57 -155 -4 -63 -8 -77
-32 -102 l-29 -30 -138 0 -138 0 0 150 0 150 128 0 c81 0 136 -5 152 -13z"/>
<path d="M3040 1455 l0 -367 193 4 c204 4 227 9 274 60 39 41 43 71 43 305 0
209 -2 230 -21 269 -12 26 -36 53 -57 66 -35 22 -49 23 -234 26 l-198 4 0
-367z m397 262 l28 -27 3 -223 c3 -247 0 -260 -58 -289 -28 -14 -61 -18 -162
-18 l-128 0 0 296 0 295 145 -3 c143 -3 145 -3 172 -31z"/>
</g>
</svg>
